<?xml version="1.0" encoding="utf-8"?>
<!-- Generator: Adobe Illustrator 26.2.1, SVG Export Plug-In . SVG Version: 6.00 Build 0)  -->
<svg version="1.1" id="Layer_1" xmlns="http://www.w3.org/2000/svg" xmlns:xlink="http://www.w3.org/1999/xlink" x="0px" y="0px"
	 viewBox="0 0 612 792" style="enable-background:new 0 0 612 792;" xml:space="preserve">
<style type="text/css">
	.st0{opacity:0.65;}
	.st1{fill:#EC184D;}
</style>
<g class="st0">
	<polygon class="st1" points="309.73,783.06 302.3,783.06 302.3,724.13 233.98,724.13 233.98,647.25 370.62,647.25 370.62,555.5 
		233.98,555.5 233.98,446.4 370.62,446.4 370.62,354.65 233.98,354.65 233.98,230.66 370.62,230.66 370.62,128.23 233.98,128.23 
		233.98,0 374.33,0 374.33,7.44 241.42,7.44 241.42,120.79 378.05,120.79 378.05,238.1 241.42,238.1 241.42,347.21 378.05,347.21 
		378.05,453.83 241.42,453.83 241.42,548.07 378.05,548.07 378.05,654.69 241.42,654.69 241.42,716.69 309.73,716.69 	"/>
	<g>
		<path class="st1" d="M270.31,732.22c1.73-1.1,4.03-0.59,5.14,1.14l30.57,48l30.57-48c1.1-1.73,3.41-2.24,5.14-1.14
			c1.73,1.1,2.23,3.42,1.14,5.14l-33.71,52.93c-0.68,1.07-1.87,1.72-3.14,1.72c-1.27,0-2.46-0.65-3.14-1.72l-33.71-52.93
			c-0.39-0.62-0.58-1.31-0.58-1.99C268.59,734.13,269.2,732.93,270.31,732.22z"/>
	</g>
</g>
</svg>
