<?xml version="1.0" encoding="utf-8"?>
<!-- Generator: Adobe Illustrator 26.2.1, SVG Export Plug-In . SVG Version: 6.00 Build 0)  -->
<svg version="1.1" id="Layer_1" xmlns="http://www.w3.org/2000/svg" xmlns:xlink="http://www.w3.org/1999/xlink" x="0px" y="0px"
	 viewBox="0 0 792 612" style="enable-background:new 0 0 792 612;" xml:space="preserve">
<style type="text/css">
	.st0{opacity:0.55;fill:#2E3192;enable-background:new    ;}
	.st1{fill:#2E3192;}
	.st2{opacity:0.88;fill:#2E3192;enable-background:new    ;}
	.st3{opacity:0.69;fill:#2E3192;enable-background:new    ;}
	.st4{fill:none;stroke:#2E3192;stroke-width:1.0001;stroke-miterlimit:10.0006;}
	.st5{fill:none;stroke:#2E3192;stroke-miterlimit:10;}
	.st6{opacity:0.46;fill:none;stroke:#2E3192;stroke-miterlimit:10;enable-background:new    ;}
</style>
<g id="Layer_1_00000122683154389599865330000008866717689649709196_">
	<rect width="792" height="612"/>
</g>
<path class="st0" d="M793.3,359.21c0.48-2.55,0.79-5.43-0.76-7.51c-1-1.34-2.6-2.07-4.13-2.75c-7.27-3.24-14.87-6.53-22.83-6.23
	c-7.96,0.3-16.34,5.39-17.63,13.25c-1.12,6.83,3.18,13.29,4.31,20.12c1.53,9.29-3.09,18.76-9.82,25.34
	c-8.62,8.41-27.25,20.94-39.62,16.54c-13.44-4.79-15.9-21.86-32.8-8.24c-17.06,13.76-5.76,28.41,10.75,33.29
	C734.34,458.85,784.11,408.28,793.3,359.21z"/>
<path class="st1" d="M785.36,528.95c-0.22-1.15-0.57-2.42-1.57-3.03c-0.65-0.4-1.44-0.44-2.2-0.47c-3.61-0.15-7.36-0.27-10.66,1.19
	s-5.98,5-5.21,8.53c0.67,3.06,3.56,5.07,5.17,7.75c2.2,3.66,1.83,8.42,0.1,12.31c-2.22,4.98-7.98,13.37-13.92,13.58
	c-6.46,0.23-10.35-6.55-15.19,2.01c-4.89,8.65,2.32,12.93,10.09,12.22C777.17,580.77,789.68,551.15,785.36,528.95z"/>
<path class="st2" d="M789.46,487.25c-0.22-1.15-0.57-2.42-1.57-3.03c-0.65-0.4-1.44-0.44-2.2-0.47c-3.61-0.15-7.36-0.27-10.66,1.19
	s-5.98,5-5.21,8.53c0.67,3.06,3.56,5.07,5.17,7.75c2.2,3.66,1.83,8.42,0.1,12.31c-2.22,4.98-7.98,13.37-13.92,13.58
	c-6.46,0.23-10.35-6.55-15.19,2.01c-4.89,8.65,2.32,12.93,10.09,12.22C781.27,539.07,793.78,509.45,789.46,487.25z"/>
<path class="st1" d="M793.83,557.83c-0.22-1.15-0.57-2.42-1.57-3.03c-0.65-0.4-1.44-0.44-2.2-0.47c-3.61-0.15-7.36-0.27-10.66,1.19
	s-5.98,5-5.21,8.53c0.67,3.06,3.56,5.07,5.17,7.75c2.2,3.66,1.83,8.42,0.1,12.31c-2.22,4.98-7.98,13.37-13.92,13.58
	c-6.46,0.23-10.35-6.55-15.19,2.01c-4.89,8.65,2.32,12.93,10.09,12.22C785.64,609.64,798.15,580.03,793.83,557.83z"/>
<path class="st3" d="M789.09,447.8c0.24-1.6,0.37-3.41-0.64-4.67c-0.65-0.81-1.67-1.24-2.64-1.63c-4.62-1.86-9.44-3.75-14.4-3.38
	s-10.08,3.73-10.71,8.67c-0.55,4.29,2.28,8.23,3.14,12.46c1.16,5.77-1.51,11.78-5.57,16.04c-5.19,5.45-16.54,13.69-24.37,11.21
	c-8.5-2.69-10.42-13.29-20.67-4.41c-10.35,8.98-2.96,17.87,7.46,20.55C754.5,511.34,784.45,478.65,789.09,447.8z"/>
<path class="st2" d="M762.4,557.83c-0.22-1.15-0.57-2.42-1.57-3.03c-0.65-0.4-1.44-0.44-2.2-0.47c-3.61-0.15-7.36-0.27-10.66,1.19
	s-5.98,5-5.21,8.53c0.67,3.06,3.56,5.07,5.17,7.75c2.2,3.66,1.83,8.42,0.1,12.31c-2.22,4.98-7.98,13.37-13.92,13.58
	c-6.46,0.23-10.35-6.55-15.19,2.01c-4.89,8.65,2.32,12.93,10.09,12.22C754.21,609.64,766.73,580.03,762.4,557.83z"/>
<path class="st3" d="M747.57,510.46c-0.4-2.05-1.02-4.3-2.79-5.39c-1.15-0.71-2.56-0.78-3.91-0.84c-6.41-0.26-13.08-0.48-18.95,2.12
	c-5.87,2.59-10.63,8.89-9.26,15.16c1.19,5.44,6.33,9.01,9.2,13.78c3.91,6.51,3.26,14.96,0.17,21.89
	c-3.95,8.86-14.18,23.78-24.76,24.15c-11.49,0.4-18.4-11.64-27.01,3.58c-8.69,15.37,4.13,22.98,17.94,21.73
	C733.02,602.58,755.27,549.93,747.57,510.46z"/>
<rect x="527.72" y="458.55" transform="matrix(0.6648 -0.7471 0.7471 0.6648 -174.7665 631.6139)" class="st4" width="177.3" height="103.98"/>
<line class="st5" x1="518.56" y1="542.21" x2="616.32" y2="510.55"/>
<line class="st5" x1="636.42" y1="409.76" x2="616.32" y2="510.55"/>
<line class="st6" x1="551.15" y1="571.21" x2="30.27" y2="571.21"/>
<line class="st6" x1="567.44" y1="585.71" x2="30.27" y2="585.71"/>
<line class="st6" x1="583.68" y1="600.16" x2="30.27" y2="600.16"/>
</svg>
