<?xml version="1.0" encoding="utf-8"?>
<!-- Generator: Adobe Illustrator 26.2.1, SVG Export Plug-In . SVG Version: 6.00 Build 0)  -->
<svg version="1.1" id="Layer_2" xmlns="http://www.w3.org/2000/svg" xmlns:xlink="http://www.w3.org/1999/xlink" x="0px" y="0px"
	 viewBox="0 0 576 576" style="enable-background:new 0 0 576 576;" xml:space="preserve">
<style type="text/css">
	.st0{fill:#2E3192;}
	.st1{fill:#F49BC2;}
	.st2{fill:#D42A67;}
	.st3{fill:#C49A6C;}
	.st4{fill:#B0515F;}
	.st5{fill:#603913;}
	.st6{fill:none;stroke:#8B5E3C;stroke-width:7;stroke-linecap:round;stroke-miterlimit:10;}
</style>
<circle class="st0" cx="287.3" cy="288.7" r="287.3"/>
<path class="st1" d="M311.52,574.98c-102.39,8.62-196.73-37.6-254.11-114.19l-0.01,0.01l45.8-41.23l40.56-51.8l328.72,55.26
	l42.6,40.85l0,0C467.57,525.61,395.26,567.93,311.52,574.98z"/>
<path class="st2" d="M261.77,132.51c0,0,94.05-33.3,147.23,1.73c31.28,20.61,40.87,52.26,44.07,69.08
	c3.21,16.82-10.51,120.37-28.87,129.35c-18.36,8.98-88.34,38.43-182.22-18.5c0,0-16.11,5.86-34.26-61.7
	C189.57,184.9,261.77,132.51,261.77,132.51z M110.72,411.69c0,0,34.93,10.66,45.27,19.55c12.79,11.01,63.78,63.44,97.63,75.76
	c32.53,11.84,113.9,0.75,141.2-8.2c16.95-5.55,41.46-22.55,64.3-46.91c20.77-22.15,15.82-33.45,15.57-51.04
	c-0.25-17.59-13.01-85.44-14.45-113.47c-1.44-28.03,5.58-93.24,6.02-117.53c0.44-24.29-11.32-59.3-34.44-85.1
	c-123.55-137.85-273.5-13.37-294.41,20.02c-20.91,33.39-30.79,91.79-30.79,91.79l-0.99,39.38c9.48,39.64-1.97,134.03-1.97,134.03
	C83.15,449.19,110.72,411.69,110.72,411.69z"/>
<path class="st3" d="M409.06,134.96c32.34,19.82,41.02,54.06,44.27,71.43s-10.19,124.23-28.53,133.45
	c-18.34,9.22-112.21,32.42-201.14-10.39c0,0-3.4,1.47-24.26-67.51c-20.88-69.06,62.39-129.17,62.39-129.17
	S334.7,89.38,409.06,134.96z"/>
<circle cx="408.42" cy="240.3" r="21.64"/>
<circle cx="279.33" cy="241.55" r="21.64"/>
<g>
	<g>
		<path d="M299.12,184.03c-3.19,0.27-6.37,0.53-9.56,0.8c-1.43,0.12-2.85,0.26-4.27,0.48c-1.15,0.18-2.4,0.44-3.55,0.15
			c0.2,1.52,0.4,3.05,0.6,4.57c1.97-0.88,4.48-1.66,6.48-1.8c2.21-0.15,4.4-0.21,6.02-1.96c0.57-0.61,0.96-1.6,0.64-2.43
			c-1.89-4.99-9.3-3.46-13.45-3.65c0.59,1.42,1.18,2.85,1.77,4.27c1.36-1.2,3.04-1.28,4.75-0.91c0.66,0.14,1.31,0.29,1.96,0.49
			c0.11,0.03,0.6,0.29,0.61,0.29c0.18-0.15-0.07,0.23-0.09-0.09c-0.01-0.13-0.2-0.26-0.2-0.41c0.41-0.72,0.83-1.44,1.24-2.16
			c-4.35,2.9-9.9,3.01-14.94,3.42c-1.66,0.13-3.3,0.39-4.96,0.47c-0.48,0.02-0.95,0.03-1.43,0.02c-0.23-0.01-0.46-0.02-0.69-0.03
			c-0.13-0.01-0.61-0.07-0.25-0.01c-0.24-0.04-0.47-0.11-0.71-0.16c-0.45-0.09,0.13,0-0.12-0.02c-0.06,0-0.62-0.33-0.06,0.01
			c-0.37-0.23,0.17,0.33-0.03-0.08c0.08,0.64,0.17,1.28,0.25,1.93c0.15-0.56-0.15,0.34,0.04-0.16c0.04-0.1,0.42-0.58,0.09-0.18
			c0.14-0.17,0.31-0.33,0.47-0.48c0.51-0.47-0.36,0.21,0.25-0.19c0.92-0.6,1.54-0.86,2.45-1.17c1.05-0.36,2.13-0.62,3.22-0.84
			c1.22-0.24,1.54-0.28,2.69-0.37c3.67-0.27,9.17,0.76,10.95,4.38c0-0.84,0-1.68,0-2.52c-0.8,1.42-2.02,2.29-3.66,3.16
			c-1.81,0.96-3.82,1.58-5.84,2.08c-3.36,0.83-6.35,1.13-9.86,1.15c-1.77,0.01-3.64-0.06-5.06-0.34c-0.38-0.07-0.76-0.16-1.13-0.27
			c-0.16-0.05-1.16-0.44-0.75-0.24c-0.14-0.07-1.05-0.59-0.57-0.29c-0.02-0.01-0.47-0.46-0.21-0.17c0.32,0.37-0.46-0.71-0.02,0.04
			c-0.04-0.06-0.1-0.32-0.1-0.37c-0.07,0.55,0.04-0.23,0.04-0.26c-0.15,0.47,0.22-0.35,0.06-0.07c0.27-0.48,0.59-0.79,1.13-1.14
			c1.51-0.99,2.82-1.41,4.62-1.93c4.69-1.37,9.46-2.42,14.38-2c2.82,0.24,5.73,0.97,8.32,2.11c0.52,0.23,1.12,0.51,1.57,0.87
			c0.18,0.15,0.45,0.36,0.4,0.47c-0.02,0.06-0.04-1.01-0.01-0.93c0.04,0.12-0.87,0.6-1.15,0.74c-5.29,2.56-11.77,2.31-17.49,2.21
			c-2.95-0.05-5.94-0.11-8.85-0.63c-2.21-0.4-4.89-0.93-6.6-2.52c0.07,0.07-0.64-0.61-0.36-0.4c-0.03-0.03-0.22-0.44-0.07-0.13
			c0.16,0.34-0.11,0.22,0.02,0.04c0.68-0.91,1.89-1.49,2.88-1.99c2.08-1.05,4.39-1.65,6.67-2.06c4.44-0.79,9.21-0.67,13.56,0.57
			c3.5,1,7.96,2.12,10.5,4.62c0.26,0.26,0.51,0.58,0.52,0.6c0.11,0.18,0.22,0.35,0.3,0.54c-0.25-0.58-0.05-0.15-0.06-0.07
			c-0.05,0.48,0.04-0.65,0-0.23c-0.02,0.05-0.03,0.1-0.05,0.14c0.16-0.36,0.18-0.42,0.05-0.19c-0.03,0.04-0.06,0.09-0.09,0.13
			c0.23-0.29,0.25-0.34,0.07-0.13c-0.01,0-0.22,0.2-0.26,0.23c0.48-0.42,0.02-0.03-0.1,0.04c-0.3,0.16-0.6,0.33-0.91,0.48
			c0.47-0.21-0.42,0.15-0.56,0.2c-0.42,0.14-0.84,0.27-1.27,0.38c-0.81,0.21-1.62,0.38-2.45,0.53c-0.4,0.07-0.81,0.13-1.21,0.2
			c-0.16,0.02-0.31,0.05-0.47,0.07c0.54-0.08-0.24,0.03-0.35,0.04c-1.53,0.19-3.09,0.37-4.63,0.43c-3.11,0.1-6.19-0.33-9.22-0.95
			c-2.89-0.59-5.8-1.23-8.62-2.07c-1.28-0.38-2.54-0.83-3.72-1.49c-0.52-0.29-0.96-0.66-1.45-0.98c-0.17-0.11-0.13-0.23-0.15-0.19
			c0.01-0.03,0.02,0.58,0.03,0.61c0.02-0.07,0.04-0.14,0.06-0.21c-0.1,0.26-0.08,0.25,0.06-0.01c-0.25,0.28,0.07-0.03,0.1-0.07
			c0.21-0.21,0.48-0.39,0.88-0.63c0.91-0.54,1.73-0.87,2.74-1.19c4.96-1.53,10.28-2.06,15.45-2.06c4.12-0.01,9.15,0.16,12.58,2.16
			c0.16,0.09,0.31,0.19,0.47,0.29c0.7,0.46-0.12-0.13,0.24,0.17c0.12,0.1,0.76,0.8,0.53,0.51c0.04,0.05,0.35,0.72,0.16,0.26
			c0.05,0.14,0.03,0.41,0.05,0.04c-0.03,0.54,0.09,0.41-0.19,0.87c-0.26,0.42-0.84,0.66-1.48,0.85c-1.03,0.3-1.82,0.37-2.74,0.48
			c-5.94,0.73-11.79,0.72-17.69-0.31c-4.25-0.74-8.75-1.41-12.69-3.26c-1.66-0.78-3.44-1.84-4.42-3.15c0,0.84,0,1.68,0,2.52
			c-0.23,0.33,0.26-0.25,0.39-0.37c-0.26,0.22,0.06-0.04,0.11-0.07c0.15-0.1,0.3-0.19,0.46-0.29c0.76-0.44,1.31-0.64,2.15-0.92
			c1.66-0.54,3.37-0.89,5.09-1.2c3.4-0.62,7.13-1.66,10.59-1.02c1.49,0.28,3.22,1.18,3.88,2.12c-0.17-0.24,0.08,0.13,0.1,0.19
			c0.07,0.19,0.02-0.09-0.02-0.07c-0.11,0.05,0.3,0.47,0.06,0.1c-0.14-0.23,0.01-0.12-0.01,0.09c-0.03,0.34,0.16-0.48,0.04-0.17
			c-0.04,0.1-0.03,0.23-0.09,0.33c-0.18,0.28,0.19-0.43,0.04-0.12c-0.07,0.14-0.16,0.26-0.24,0.39c0.31-0.48-0.1,0.11-0.24,0.24
			c-0.2,0.2-0.42,0.39-0.64,0.57c0.34-0.28-0.29,0.2-0.43,0.29c-0.34,0.23-0.7,0.43-1.05,0.63c-1.36,0.75-2.11,1.05-3.55,1.55
			c-1.17,0.41-2.37,0.76-3.59,1.01c-0.23,0.05-0.46,0.08-0.68,0.13c-0.56,0.13,0.76-0.04,0.27-0.04c-0.29,0-0.59,0.04-0.88,0.06
			c-2.01,0.09-4.04,0.05-6.05-0.05c-0.59-0.03-1.18-0.07-1.77-0.12c-0.29-0.03-0.59-0.05-0.88-0.08c-0.18-0.02-1.21-0.15-0.64-0.07
			c-1.08-0.15-2.16-0.34-3.2-0.65c-0.22-0.06-0.43-0.15-0.65-0.21c-0.56-0.17,0.35,0.24-0.11-0.05c-0.14-0.09-0.33-0.2-0.48-0.27
			c-0.42-0.18,0.34,0.37-0.01-0.02c-0.22-0.24,0.34,0.56,0.08,0.09c0.31,0.57,0.2,0.53,0.15,0.32c-0.1-0.33,0.05,0.39,0.05,0.37
			c0.01-0.28-0.14,0.7,0,0.14c-0.18,0.71-0.06,0.19,0.12-0.1c-0.33,0.51,0.04-0.01,0.24-0.2c0.24-0.23,0.49-0.43,0.75-0.63
			c0.89-0.64,1.89-1.17,2.89-1.61c2-0.88,4.16-1.46,6.28-1.99c2.22-0.56,4.45-1.06,6.66-1.64c2.63-0.69,5.24-1.34,7.97-1.05
			c-0.8-0.61-1.61-1.22-2.41-1.84c-0.06-0.35-0.16,0.4-0.01,0.01c-0.3,0.78,0.26-0.36-0.16,0.4c-0.17,0.32-0.52,0.68-0.92,1.04
			c-0.8,0.73-1.85,1.32-2.86,1.86c-3.05,1.65-6.3,2.82-9.66,3.65c-2.86,0.7-5.77,1.15-8.7,1.42c-0.55,0.05-1.1,0.09-1.65,0.09
			c-0.28,0-0.56,0-0.84-0.03c-0.05,0-0.49-0.08-0.14-0.01c-0.25-0.05-0.48-0.14-0.73-0.19c0.32,0.06-0.05-0.26,0.16,0.07
			c0.16,0.24,0.18,0.31,0.25,0.59c-0.06,0.31-0.06,0.32,0.02,0.03c-0.1,0.25-0.08,0.25,0.06-0.02c-0.29,0.37,0.27-0.27,0.27-0.27
			c-0.06,0.05,0.61-0.53,0.36-0.33c0.45-0.36,0.96-0.66,1.46-0.95c0.96-0.56,1.98-1.11,3-1.57c1.32-0.59,2.82-0.99,4.28-0.85
			c0.65,0.06,1.3,0.25,1.89,0.52c0.86,0.41,0.86,0.45,1.45,1.02c0.85,0.81,1.63,1.77,2.11,2.85c0.16,0.36,0.18,0.83,0.27,0.99
			c0.28,0.52-0.15,0.22-0.01,0.1c0.41-0.34,0.21-0.53,0.02-0.16c0.34-0.67-0.02-0.06-0.27,0.18c-0.41,0.39,0.46-0.32-0.03,0.03
			c-0.16,0.11-0.31,0.22-0.47,0.32c-0.81,0.54-1.67,1.01-2.55,1.44c-2,0.99-3.96,1.77-6.34,2.39c-0.51,0.13-1.02,0.24-1.54,0.35
			c-0.11,0.02-0.8,0.11-0.13,0.03c-0.24,0.03-0.48,0.05-0.72,0.06c-0.16,0.01-0.33-0.01-0.49,0c-0.69,0.04,0.33,0.07-0.03,0
			c-0.27-0.05-0.41-0.27,0.17,0.09c-0.3-0.19,0.65,0.78,0.49,0.5c-0.3,1.14-0.6,2.28-0.9,3.42c2.26-1.73,5.11-2.25,8.01-2.22
			c2.81,0.03,5.75,0.69,7.47,2.62c0.17-1.31,0.34-2.62,0.51-3.93c-2.14,1.55-4.92,1.2-7.4,0.82c-2.29-0.35-5.17-0.54-7.02-1.59
			c-0.88-0.5-1.62-1.23-2.28-2.13c-0.66-0.88-1.71-2.14-1.16-3.31c0.1-0.22,0.23-0.33,0.45-0.52c0.39-0.33,0.9-0.6,1.37-0.79
			c0.43-0.18,1.03-0.33,1.35-0.36c0.18-0.02,0.7,0,0.7-0.01c0.18,0.03,0.11,0,0.35,0.15c-0.41-0.72-0.83-1.44-1.24-2.16
			c0.01,0.08,0.01,0.15,0.02,0.23c0.07-0.3,0.07-0.31,0-0.03c-0.12,0.02,0.45-0.51-0.03-0.03c0.35-0.35-0.05,0.02-0.14,0.07
			c-0.39,0.23,0.51-0.29-0.18,0.12c-0.88,0.52-1.27,0.66-2.23,0.99c-1.86,0.64-3.51,1.42-5.24,2.36c-0.43,0.23-0.84,0.45-1.3,0.59
			c-0.09,0.03-0.66,0.06-0.37,0.08c0.27,0.01-0.24-0.04-0.21-0.06c-0.38,0.16-0.17-0.3,0.1,0.12c0.12,0.18,0.23,0.27,0.3,0.5
			c0,0,0,0.87,0.01,0.52c0.02-0.51-0.1,0.06,0.1-0.3c0.4-0.75,0.56-0.9,1.17-1.52c0.3-0.31,0.62-0.6,0.95-0.88
			c0.59-0.5-0.36,0.22,0.23-0.17c0.16-0.11,0.32-0.22,0.49-0.31c4.19-2.4,9.76-2.22,14.4-1.84c5.22,0.42,10.55,1.24,15.66,2.35
			c2.79,0.61,5.48,1.44,7.97,2.84c0.99,0.56,1.98,1.16,2.88,1.86c0.51,0.39,0.99,0.83,1.43,1.3c0.13,0.14,0.28,0.29,0.39,0.44
			c-0.21-0.3,0.36,0.79,0.14,0.21c0.58-1.03,1.16-2.05,1.75-3.08c-5.59,1.74-11.55,1.22-17.24,0.24c-2.38-0.41-4.77-0.84-7.12-1.42
			c-2.01-0.5-4.37-1.11-5.92-2.46c0.13,1.01,0.26,2.02,0.39,3.03c0.66-0.9,2.55-1.28,3.67-1.58c1.96-0.54,3.9-1.11,5.88-1.54
			c4.41-0.98,8.91-1.5,13.42-1.62c4.39-0.11,8.77,0.2,13,1.43c1.8,0.52,3.52,1.23,5.23,2c0.68,0.31,1.35,0.63,1.98,1.02
			c0.3,0.18,0.51,0.32,0.73,0.54c0.15,0.15,0.23,0.43,0.18,0.24c0.38-0.94,0.77-1.88,1.15-2.82c-4.94,2.09-10.44,2.84-15.77,2.62
			c-2.27-0.09-4.52-0.38-6.73-0.89c-0.64-0.15-1.27-0.31-1.9-0.5c-0.35-0.1-0.7-0.22-1.05-0.34c-0.2-0.07-0.4-0.14-0.59-0.21
			c0,0-0.73-0.29-0.34-0.13c-0.68-0.29-1.32-0.65-1.95-1.04c-0.2-0.13-0.8-0.64-0.87-0.92c0.18,0.7,0.02-0.03,0.02-0.03
			c0.18-0.21-0.14,0.5,0.01-0.01c0.02-0.08,0.06-0.53-0.01,0.05c0.01-0.09,0.07-0.33,0.13-0.43c-0.24,0.39,0.36-0.53,0.36-0.53
			c0.24-0.3,0.63-0.68,0.88-0.86c2.92-2.2,7.48-1.48,10.82-0.53c2.09,0.6,4.15,1.39,6.06,2.42c1.71,0.91,3.97,2.31,4.66,3.99
			c0.21-0.81,0.43-1.62,0.64-2.43c-7.78,6.21-20.58,4.98-29.21,0.9c-2.28-1.08-4.48-2.4-6.32-4.03c-0.4-0.35-0.77-0.85-1.2-1.16
			c-0.75-0.53,0.07-0.18-0.13-0.01c-0.06,0.4-0.12,0.79-0.18,1.19c-0.02,0.08-0.07,0.14-0.13,0.17c0.18,0.02,0.8-0.47,0.98-0.56
			c0.33-0.17,0.67-0.33,1.01-0.48c0.76-0.32,1.55-0.57,2.33-0.8c4.32-1.27,8.99-1.86,13.5-1.72c0.94,0.03,1.89,0.08,2.83,0.17
			c0.23,0.02,0.46,0.05,0.69,0.07c0.15,0.02,0.3,0.04,0.46,0.05c-0.29-0.04-0.28-0.04,0.01,0c0.5,0.08,1,0.17,1.49,0.28
			c0.44,0.1,0.87,0.23,1.3,0.38c0.58,0.2-0.52-0.18,0.02,0.02c0.3,0.11,0.51,0.51,0.1,0c0.19,0.24,0.18,0.34-0.06-0.14
			c0.13,0.22,0.09,0.12-0.1-0.29c0.06,0.25,0.05,0.14-0.04-0.33c0-0.7,0.03-0.44,0-0.18c0.07-0.58,0.08-0.22-0.15,0.08
			c0.5-0.38,1-0.77,1.49-1.15c-5.81,2.34-12.47,2.4-18.64,2.49c-3.29,0.05-6.59,0.05-9.87-0.24c-0.69-0.06-1.37-0.14-2.06-0.22
			c-0.25-0.03-0.5-0.04-0.75-0.09c0.42,0.07-0.03-0.05-0.06-0.03c-0.07-0.02-0.13-0.04-0.2-0.05c0.35,0.11,0.62,0.33,0.81,0.66
			c0.82,1.43,0.03,0.74,0.2,0.46c0.08-0.12,0.23-0.78,0.32-0.92c2.25-3.66,7-5.74,10.94-6.97c2.31-0.72,4.87-0.28,7.22,0.11
			c2.43,0.41,4.75,1.29,6.94,2.43c5.27,2.74,9.83,6.64,14.94,9.64c-0.17-1.31-0.34-2.62-0.51-3.93c0.22-0.17-0.36,0.15-0.44,0.18
			c-0.11,0.04-0.53,0.15-0.75,0.21c-0.63,0.17-1.36,0.31-1.94,0.39c-1.38,0.19-2.78,0.29-4.16,0.37c-1.85,0.11-3.72,0.14-5.57,0.02
			c-0.76-0.05-1.52-0.12-2.27-0.26c-0.37-0.07-0.74-0.15-1.1-0.25c-0.18-0.05-0.86-0.41-1.02-0.39c-0.31,0.04,0.03-0.16,0.03,0.03
			c0-0.04,0.32,0.78,0.27,0.59c-0.01-0.04,0.04,1.4-0.19,1.17c-0.09-0.09,0.88-0.69,0.99-0.75c1.18-0.66,2.69-0.99,4.12-1.29
			c3.35-0.7,6.96-0.94,10.25,0.12c1.33,0.43,2.64,1.19,3.84,2.04c0.59,0.42,1.15,0.9,1.63,1.45c0.21,0.24,0.33,0.39,0.5,0.71
			c0.1,0.19,0.12,0.43,0.11,0.26c0.41-0.72,0.83-1.44,1.24-2.16c-5.57,3.44-14.47,2.52-18.74-2.72c-0.07-0.09-0.43-0.57-0.32-0.4
			c-0.03-0.04-0.15-0.51-0.07-0.08c-0.03-0.15-0.01-0.34,0-0.49c-0.01,0.16-0.1,0.35,0.05-0.05c-0.04,0.09-0.2,0.38,0.04-0.1
			c0.16-0.31,0.4-0.62,0.48-0.71c1.03-1.17,2.33-1.96,3.72-2.72c3.49-1.89,7.37-2.53,10.83-0.2c1.66,1.11,3.15,2.52,4.52,3.96
			c1.36,1.43,2.91,3.23,3.58,4.95c0.58-1.03,1.16-2.05,1.75-3.08c-3.68,0.55-7.02-1.92-10.05-3.61c-1.18-0.66-2.43-1.16-3.62-1.78
			c-0.25-0.13-0.49-0.26-0.73-0.41c-0.09-0.06-0.82-0.57-0.58-0.39c-0.3-0.23-0.39-0.29-0.36-0.4c-0.01,0.03-0.03,1.02,0.15,0.41
			c-0.38,0.5-0.77,1-1.15,1.49c1.47-0.77,3.33-0.28,4.64,0.63c1.64,1.14,2.82,2.55,4.75,3.26c0.85,0.31,1.81-0.08,2.43-0.64
			c2.16-1.96,1.86-4.8,0.01-6.83c-1.66-1.83-4.08-3.03-6.3-4.04c-1.84-0.83-3.73-1.63-5.67-2.22c-4.51-1.38-9.17-0.47-13.75-0.06
			c-1.34,0.12-2.5,1.06-2.5,2.5c0,1.26,1.15,2.62,2.5,2.5c4.01-0.36,8.29-1.33,12.25-0.17c1.24,0.37,2.85,1,3.75,1.38
			c1.52,0.64,3.74,1.72,5.35,2.87c0.48,0.35-0.24-0.22,0.15,0.12c0.19,0.17,0.37,0.35,0.56,0.52c0.12,0.11,0.55,0.46,0.05,0.02
			c0.07,0.06,0.22,0.31,0.25,0.4c-0.32-1.01-0.02,0.4-0.07-0.26c-0.04-0.46-0.25,0.54,0.03-0.33c-0.15,0.49,0.2-0.59,0.03-0.07
			c0.17-0.49,0.1-0.11-0.18,0.14c0.81-0.21,1.62-0.43,2.43-0.64c-0.69-0.25-1.25-0.89-1.79-1.36c-0.7-0.6-1.41-1.22-2.21-1.68
			c-1.71-0.98-3.77-1.54-5.75-1.39c-2.34,0.17-4.87,1.17-4.85,3.88c0.01,1.73,1.09,3.08,2.4,4.07c1.01,0.76,2.15,1.29,3.29,1.81
			c1.5,0.68,2.89,1.54,4.33,2.35c3.66,2.06,7.29,3.39,11.53,2.76c1.25-0.19,2.2-1.93,1.75-3.08c-1.84-4.69-5.79-8.54-9.79-11.47
			c-4.79-3.51-10.62-3.19-15.75-0.62c-3.55,1.78-8.34,5.05-7.38,9.67c0.49,2.35,2.6,4.13,4.44,5.48c1.88,1.38,4.07,2.38,6.31,3.01
			c5.22,1.46,11.13,0.99,15.8-1.89c0.71-0.44,1.3-1.28,1.24-2.16c-0.28-4.03-4.25-6.89-7.65-8.45c-4.6-2.1-9.74-2-14.61-1.03
			c-3.18,0.63-9.01,2.09-8.87,6.32c0.16,4.89,8.35,4.82,11.68,4.81c2.29-0.01,4.6-0.17,6.87-0.44c2.47-0.3,4.82-0.71,6.82-2.27
			c1.3-1.01,0.74-3.19-0.51-3.93c-5.82-3.42-10.95-8.02-17.19-10.71c-3.38-1.46-6.72-2.01-10.35-2.43
			c-3.7-0.42-7.37,0.83-10.67,2.44c-2.6,1.27-5.19,3.14-7.14,5.28c-1.82,2-3.92,5.9-1.44,8.26c1.15,1.09,2.84,1.1,4.32,1.28
			c2.07,0.24,4.15,0.36,6.23,0.41c4.15,0.09,8.35,0.09,12.49-0.25c4.11-0.34,8.5-0.74,12.36-2.24c1.41-0.55,2.33-1.48,2.66-2.97
			c0.27-1.22-0.12-2.48-0.99-3.37c-1.3-1.34-3.31-1.83-5.08-2.12c-2.05-0.33-4.12-0.49-6.2-0.53c-1.79-0.03-3.55,0.12-5.33,0.31
			c-3.61,0.39-7.28,0.94-10.7,2.22c-2.84,1.07-7.46,3.23-5.18,7.01c1.43,2.38,4.32,4.26,6.65,5.66c9.91,5.96,24.08,7.83,34.55,2.25
			c1.27-0.68,2.44-1.51,3.57-2.41c0.61-0.49,0.95-1.7,0.64-2.43c-2.15-5.19-7.72-7.71-12.74-9.43c-4.75-1.62-10.44-2.36-15.1-0.06
			c-2.18,1.08-4.28,3.19-4.77,5.64c-0.45,2.25,0.58,4.29,2.31,5.69c3.2,2.57,7.69,3.51,11.67,4.05c7.67,1.05,15.46,0.12,22.59-2.9
			c0.99-0.42,1.42-1.86,1.15-2.82c-0.87-3.07-4.16-4.34-6.81-5.51c-3.84-1.69-7.82-2.68-11.99-3.14
			c-8.04-0.88-16.53,0.09-24.32,2.13c-3.6,0.94-7.79,1.66-10.12,4.84c-0.61,0.83-0.38,2.36,0.39,3.03
			c4.09,3.54,10.09,4.28,15.25,5.17c6.56,1.13,13.43,1.77,19.9-0.24c1.19-0.37,2.25-1.78,1.75-3.08c-1.48-3.8-5.75-6.32-9.32-7.92
			c-4.91-2.2-10.26-2.88-15.53-3.7c-4.95-0.77-9.99-1.49-15.02-1.18c-4.38,0.27-9.1,1.21-12.45,4.23c-1.33,1.2-2.62,2.73-3.1,4.48
			c-0.61,2.2,0.59,4.23,2.69,4.98c2.35,0.83,4.52-0.09,6.57-1.24c0.44-0.25,0.88-0.51,1.33-0.75c0.21-0.11,0.43-0.22,0.65-0.32
			c-0.08,0.03-0.54,0.21-0.09,0.05c0.77-0.27,1.56-0.51,2.32-0.8c1.81-0.67,3.74-1.5,4.84-3.17c0.52-0.79,0.8-1.71,0.77-2.66
			c-0.05-1.68-1.35-2.56-2.85-2.93c-4.55-1.1-10.37,2.41-10.31,7.35c0.03,2.72,2.01,5.45,3.9,7.26c1.71,1.64,3.83,2.57,6.13,3.04
			c2.5,0.51,5.1,0.92,7.63,1.11c2.7,0.21,5.62-0.11,7.88-1.75c1.34-0.97,1.66-2.64,0.51-3.93c-2.64-2.95-6.88-3.98-10.69-4.08
			c-3.65-0.1-7.89,0.62-10.85,2.9c-1.07,0.82-1.65,2.13-0.9,3.42c1.35,2.31,4.34,2.01,6.57,1.58c2.67-0.52,5.26-1.54,7.72-2.66
			c2.01-0.91,4.33-2.01,5.8-3.71c2.52-2.92,0.34-6.94-1.75-9.42c-2.82-3.36-7.02-4.67-11.3-3.72c-1.83,0.41-3.52,1.27-5.16,2.13
			c-1.38,0.72-2.76,1.54-3.9,2.61c-1.33,1.25-2.24,3.02-1.79,4.88c0.42,1.75,1.92,2.9,3.61,3.32c1.53,0.38,3.16,0.31,4.71,0.13
			c1.86-0.21,3.71-0.43,5.56-0.73c5.09-0.85,10.06-2.42,14.62-4.86c3.48-1.86,7.23-4.65,6.45-9.08c-0.2-1.15-1.38-1.73-2.41-1.84
			c-2.99-0.31-6,0.38-8.88,1.12c-2.23,0.58-4.48,1.1-6.72,1.66c-4.36,1.08-9.47,2.44-12.69,5.8c-2.15,2.24-2.12,5.36,0.64,7.07
			c2.27,1.4,5.29,1.67,7.87,1.92c4.81,0.47,9.6,0.55,14.22-0.99c3.09-1.03,6.65-2.44,8.76-5.04c1.11-1.37,1.74-3.1,1.28-4.87
			c-0.51-1.95-2.06-3.37-3.69-4.44c-4.73-3.1-10.67-1.63-15.83-0.75c-4.31,0.74-9.73,1.52-12.44,5.36c-0.46,0.65-0.49,1.87,0,2.52
			c4.29,5.72,11.96,7.26,18.61,8.44c4.23,0.75,8.44,1.35,12.75,1.31c2.43-0.02,4.85-0.2,7.26-0.5c1.67-0.21,3.41-0.31,5.01-0.85
			c3.64-1.25,6.16-5.07,4.26-8.81c-1.39-2.74-4.73-4.14-7.53-4.89c-3.62-0.96-7.53-1.16-11.25-1.13c-4.3,0.03-8.64,0.48-12.85,1.36
			c-3.24,0.68-7.04,1.61-9.43,4.08c-1.26,1.3-1.89,3.05-1.31,4.82c0.69,2.07,2.83,3.37,4.7,4.26c4.06,1.92,8.68,2.81,13.06,3.68
			c4.23,0.84,8.44,1.26,12.74,0.82c2.4-0.24,4.82-0.53,7.18-1.08c2.38-0.56,5.23-1.47,6.63-3.64c1.72-2.68,0.11-5.72-2.08-7.54
			c-2.64-2.18-5.95-3.43-9.17-4.46c-6.94-2.23-14.16-2.78-21.29-1c-3.54,0.89-8.08,2.49-10.2,5.66c-2.53,3.77,0.9,7.38,4.25,8.9
			c4.2,1.9,8.94,2.29,13.49,2.44c4.68,0.15,9.39,0.21,14.03-0.45c2.26-0.32,4.5-0.84,6.63-1.69c1.96-0.79,4.14-1.83,4.87-3.98
			c1.48-4.34-3.89-6.59-7.03-7.67c-7.91-2.72-16-1.73-23.85,0.63c-2.69,0.8-5.72,1.89-7.6,4.07c-2.05,2.37-2.28,6,0.2,8.18
			c2.22,1.95,5.54,2.31,8.37,2.48c2.37,0.14,4.79,0.08,7.16-0.15c3.25-0.32,6.5-0.92,9.6-1.97c2.99-1.02,6.18-2.46,8.28-4.91
			c0.52-0.62,1.08-1.3,1.38-2.06c0.49-1.24-0.09-2.35-0.81-3.36c-1.07-1.49-2.55-2.67-4.18-3.51c-2.86-1.49-6.24-2.34-9.47-2.26
			c-2.83,0.07-5.78,0.58-8.44,1.53c-2.67,0.95-5.81,2.56-6.53,5.58c-0.49,2.06,1.4,3.61,3.13,4.21c1.4,0.48,2.98,0.53,4.45,0.48
			c2.88-0.1,5.78-0.5,8.65-0.75c4.14-0.36,8.32-0.91,12.12-2.71c0.91-0.43,2.01-0.96,2.65-1.76c0.79-0.99,0.64-2.53,0.04-3.6
			c-0.86-1.54-2.52-2.29-4.15-2.72c-3.96-1.04-7.72-0.93-10.92,1.9c-1.72,1.52-0.26,4.17,1.77,4.27c1.79,0.08,3.59-0.07,5.38-0.01
			c0.51,0.02,1.02,0.04,1.53,0.09c0.71,0.06,0.45,0.01,1,0.14c0.23,0.05,0.45,0.11,0.67,0.17c0.1,0.02,0.76,0.17,0.17,0.05
			c0.38,0.08,0.19,0.42,0.08,0.01c0.11,0.42-0.19-0.38-0.22-0.45c0.21-0.81,0.43-1.62,0.64-2.43c-0.39,0.42-0.87,0.41-1.48,0.45
			c-1.02,0.06-2.02,0.13-3.03,0.31c-2.42,0.43-4.74,1.21-6.97,2.22c-2,0.9-1.36,4.08,0.6,4.57c2.86,0.72,5.8-0.17,8.67-0.42
			c3.34-0.29,6.69-0.56,10.03-0.84c1.35-0.11,2.5-1.07,2.5-2.5C301.62,185.26,300.47,183.92,299.12,184.03L299.12,184.03z"/>
	</g>
</g>
<g>
	<g>
		<path d="M382.06,180.73c4.25-0.36,8.5-0.81,12.75-1.24c4.24-0.42,8.54-0.97,12.81-1.04c3.71-0.06,7.34,0.59,10.85,1.77
			c3.38,1.13,6.29,2.9,9.37,4.63c1.94,1.09,5.49,2.49,6.41,4.17c0.04,0.07,0.22,0.56,0.23,0.56c0.2,0.06-0.14,0.09-0.02-0.13
			c0.05-0.1,0.08-0.32,0.11-0.43c0.08-0.28,0.04-0.08-0.02,0.01c0.03-0.04,0.28-0.31,0.28-0.33c0.04-0.27-0.05,0.02-0.05,0.01
			c-0.01,0.1-0.32,0.12,0.05-0.01c-0.25,0.09-0.5,0.14-0.75,0.2c-0.11,0.03-0.23,0.05-0.35,0.06c0.05-0.01,0.36-0.04,0.05-0.01
			c-0.59,0.06-1.19,0.08-1.78,0.08c-7.5,0.06-14.89-0.72-22.29-1.83c-3.59-0.54-7.37-0.88-10.75-2.31c-1.32-0.56-2.47-1.37-3.55-2.3
			c-0.54-0.47-1.07-0.95-1.57-1.47c-0.25-0.27-0.4-0.41-0.56-0.66c-0.29-0.43-0.16-0.57-0.13-0.02c-0.24,0.59-0.49,1.18-0.73,1.77
			c2.21-1.8,6.4-1.91,9.28-2.03c4.6-0.18,9.26,0.05,13.77,1.03c4.31,0.94,8.55,2.5,12.4,4.67c1.6,0.9,3.08,1.98,4.6,3.01
			c0.6,0.41,1.09,0.73,1.56,1.16c0.14,0.12,0.27,0.25,0.4,0.39c0.2,0.24,0.24,0.27,0.1,0.09c0.15,0.27,0.16,0.26,0.05-0.01
			c-0.03-0.19-0.04-0.38-0.01-0.57c0.38-0.5,0.77-1,1.15-1.49c-6.11,2.74-13.71,2.45-20.18,1.45c-2.24-0.34-4.45-0.85-6.68-1.24
			c-2.31-0.4-4.62-0.84-6.87-1.52c-0.53-0.16-1.45-0.48-1.72-0.59c0.13,0.05-0.41-0.19-0.55-0.25c-0.26-0.13-0.5-0.28-0.75-0.41
			c-0.09-0.05-0.17-0.11-0.25-0.16c-0.26-0.16,0.31,0.31-0.02-0.01c-0.04-0.04-0.14-0.16-0.19-0.18c-0.44-0.16,0.24-0.27,0.01,0.07
			c0-0.01-0.12-0.18-0.13-0.2c-0.14-0.23,0.08,0.44,0.06,0.19c-0.03-0.55-0.05,0.57,0-0.14c-0.41,0.72-0.83,1.44-1.24,2.16
			c5.68-2.56,12.9-2.57,18.94-1.49c2.84,0.51,5.68,1.16,8.4,2.13c2.3,0.82,5.05,2.12,6.43,3.97c0-0.84,0-1.68,0-2.52
			c-0.29,0.6,0.19-0.25-0.01,0.1c-0.16,0.28,0.42-0.25-0.1,0.09c-0.35,0.23-0.18,0.12-0.05,0.06c-0.2,0.09-0.41,0.15-0.62,0.2
			c-0.97,0.28-1.39,0.29-2.42,0.35c-2.02,0.11-4.05,0.14-6.08,0.21c-5.41,0.2-10.7-0.02-16.04-0.96c-3.46-0.61-8.61-1.36-10.79-4.41
			c-0.07-0.1-0.62-0.95-0.35-0.32c-0.06-0.14,0.22-0.33,0.03-0.13c-0.19,0.2,0.13-0.16,0.13-0.17c0.84-0.61,1.68-1.17,2.66-1.58
			c2.24-0.92,4.68-1.24,7.08-1.24c4.99,0.01,9.9,1.35,14.59,2.98c4.67,1.62,9.31,3.51,13.45,6.24c2.05,1.35,3.84,2.96,5.45,4.81
			c0.01,0.01,1.02,1.24,1.03,1.24c0.11-0.04-3.13,3.24-0.03-0.26c0.15-0.17,0.11-0.46,0.15-0.31c0.02,0.07,0.12-0.05-0.16,0.14
			c-0.15,0.1-0.31,0.18-0.47,0.27c-0.31,0.16-0.7,0.31-1.18,0.46c-4.25,1.36-8.89,1.33-13.25,0.63c-5.71-0.91-11.35-2.74-16.58-5.2
			c-2.79-1.32-5.36-2.97-8.03-4.51c-1.68-0.97-4.18-2.05-5.02-3.62c-0.13,1.01-0.26,2.02-0.39,3.03c2.08-2.69,5.5-2.74,8.63-2.99
			c4.09-0.32,8.28-0.41,12.35,0.14c4.2,0.57,8.32,2.08,12.25,3.63c2,0.79,3.93,1.69,5.86,2.63c1.3,0.63,3.2,1.24,4.01,2.5
			c0.13-1.01,0.26-2.02,0.39-3.03c-0.08,0.09-0.2,0.27-0.31,0.32c0.04-0.02,0.29-0.21,0.05-0.04c-0.08,0.06-0.7,0.39-0.39,0.25
			c-0.63,0.28-1.35,0.42-2.03,0.53c-1.12,0.18-2.82,0.2-4.17,0.19c-3.55-0.03-7.13,0-10.67-0.35c-4.49-0.44-8.92-1.39-13.31-2.39
			c-4.06-0.92-8.37-1.55-12.24-3.12c-1.62-0.66-3.03-1.66-4.53-2.54c-0.69-0.4-1.38-0.8-2.04-1.26c-0.24-0.16-0.44-0.32-0.65-0.52
			c-0.18-0.17-0.46-0.67-0.29-0.22c-0.04-0.1-0.26-0.77-0.11-0.39c0.11,0.28-0.01,0.12,0.02,0c0.06-0.31,0.06-0.02-0.05,0.2
			c0.18-0.37,0.09-0.14-0.07,0.05c0.44-0.5-0.36,0.23,0.06-0.14c0.41-0.36-0.35,0.15,0.03-0.05c0.14-0.07,0.29-0.16,0.43-0.25
			c0.35-0.22-0.03,0-0.11,0.04c0.11-0.04,0.23-0.09,0.35-0.13c0.25-0.08,0.5-0.15,0.76-0.22c0.2-0.05,0.41-0.09,0.61-0.13
			c0.14-0.03,0.28-0.05,0.43-0.07c-0.1,0.02-0.5,0.05,0,0c0.55-0.06,1.09-0.1,1.64-0.12c1.23-0.05,2.47-0.01,3.7,0.06
			c1.09,0.07,2.17,0.18,3.25,0.3c0.14,0.02,0.28,0.03,0.42,0.05c-0.02,0-0.45-0.06-0.17-0.02c0.22,0.03,0.44,0.06,0.65,0.09
			c0.39,0.06,0.79,0.12,1.18,0.19c4.12,0.74,8.18,2.04,11.86,4.05c1.24,0.68,2.49,1.33,3.73,1.99c0.66,0.35,1.32,0.71,1.94,1.13
			c0.11,0.07,0.22,0.14,0.32,0.22c0.61,0.44-0.19-0.07,0.14,0.11c0.06,0.04,0.15,0.2,0.22,0.21c-0.17-0.26-0.21-0.31-0.12-0.16
			c0.2,0.33,0.13,0.05-0.19-0.82c0.61-0.8,1.22-1.61,1.84-2.41c-6.34,1.97-13.11,3.27-19.77,2.86c-0.3-0.02-0.61-0.05-0.91-0.07
			c0.8,0.04,0.31,0.05,0.11,0c-0.36-0.08-0.71-0.15-1.07-0.23c-0.91-0.23-1.82-0.51-2.71-0.82c-1.87-0.65-3.58-1.38-5.36-2.61
			c-0.12-0.08-0.33-0.23-0.71-0.61c-0.14-0.14-0.28-0.29-0.41-0.45c0.4,0.51-0.01-0.01-0.02-0.1c-0.06-0.56,0.12,0.52,0.01-0.03
			c0.01,0.07,0.01,0.61,0.03,0.19c0.02-0.56-0.15,0.59,0.01,0.03c-0.09,0.33-0.19,0.26,0.01,0.07c-0.31,0.3,0.28-0.18,0.32-0.21
			c0.64-0.37-0.29,0.07,0.44-0.21c0.57-0.22,1.19-0.36,1.79-0.49c1.16-0.25,2.35-0.39,3.52-0.59c3.36-0.58,6.52-0.88,9.93-0.48
			c1.78,0.21,3.58,0.52,5.35,0.81c2.27,0.37,4.55,0.81,6.73,1.57c0.9,0.31,1.29,0.44,2.26,1.12c-0.5-0.35-0.01,0.02,0.08,0.08
			c0.08,0.08,0.17,0.17,0.24,0.25c-0.21-0.29-0.24-0.33-0.1-0.11c0.03,0.05,0.05,0.09,0.08,0.14c-0.14-0.36-0.16-0.42-0.08-0.17
			c0.03,0.43,0.02-0.61-0.02,0.11c0.24-0.59,0.49-1.18,0.73-1.77c0.54-0.45,0.29-0.23-0.06-0.02c-0.12,0.07-0.25,0.11-0.36,0.18
			c0.43-0.24,0.35-0.13-0.03,0c-0.73,0.26-1.46,0.48-2.21,0.67c-1.95,0.5-4.35,0.92-6.06,1.15c-1.91,0.26-4.56,0.48-6.77,0.53
			c-1.1,0.02-2.2,0.01-3.29-0.05c-0.46-0.03-0.92-0.07-1.38-0.12c-0.15-0.02,0.37,0.07-0.13-0.02c-0.25-0.04-0.5-0.08-0.74-0.13
			c-0.45-0.09-0.87-0.24-1.31-0.35c-0.52-0.13,0.29,0.18-0.02,0c-0.15-0.09-0.32-0.18-0.47-0.26c-0.51-0.24,0.25,0.24,0.02,0.03
			c-0.39-0.37,0.18,0.32,0.04,0.09c-0.25-0.4,0.07,0.23,0.06,0.17c-0.12-0.45,0.01,0.69,0.02,0.09c-0.41,0.72-0.83,1.44-1.24,2.16
			c7.42-3.46,16.2-2.5,23.95-0.81c2.47,0.54,4.93,1.14,7.32,1.97c1.32,0.46,2.1,0.73,3.36,1.52c0.11,0.07,0.8,0.62,0.34,0.22
			c0.19,0.16,0.36,0.33,0.53,0.51c-0.21-0.29-0.24-0.32-0.1-0.11c0.13,0.24,0.11,0.18-0.06-0.18c0.06,0.44,0.04-0.65,0,0.05
			c0.41-0.72,0.83-1.44,1.24-2.16c-0.97,0.63-2.33,0.3-3.44,0.28c-1.7-0.03-3.41-0.07-5.11-0.14c-3.06-0.13-6.08-0.46-9.13-0.7
			c-2.15-0.17-4.32-0.26-6.46-0.57c-1.16-0.17-2.32-0.4-3.44-0.75c-0.44-0.14-0.78-0.25-1.12-0.41c-0.26-0.12-0.52-0.26-0.76-0.41
			c-0.06-0.04-0.63-0.45-0.39-0.25c0.24,0.59,0.49,1.18,0.73,1.77c-0.03,0.34-0.02,0.43,0.03,0.07c-0.05,0.33-0.03,0.4,0.01,0.09
			c0,0.03-0.34,0.37-0.16,0.22c0.03-0.02,0.15-0.12,0.16-0.16c-0.07,0.26-0.35,0.22,0.08-0.02c0.08-0.05,0.57-0.26,0.25-0.13
			c-0.32,0.13,0.23-0.07,0.32-0.09c0.23-0.06,0.45-0.12,0.68-0.17c0.12-0.03,0.76-0.13,0.52-0.1c-0.26,0.04,0.36-0.04,0.46-0.04
			c0.24-0.02,0.47-0.04,0.71-0.05c0.54-0.03,1.08-0.03,1.61-0.03c1.07,0.01,2.15,0.08,3.21,0.19c0.5,0.05,1,0.11,1.5,0.17
			c0.3,0.04-0.01,0-0.06-0.01c0.12,0.02,0.24,0.03,0.36,0.05c0.27,0.04,0.54,0.08,0.8,0.12c0.84,0.14,1.68,0.29,2.52,0.47
			c2.41,0.53,4.74,1.5,6.99,2.5c1.78,0.79,3.53,1.66,5.29,2.5c0.64,0.3,1.33,0.61,1.9,1.04c0.14,0.1,0.28,0.27,0.49,0.46
			c-0.09-0.09,0.05,0.37,0.01,0c0.24-0.59,0.49-1.18,0.73-1.77c-0.17,0.15-0.38,0.31-0.8,0.55c-0.43,0.24-0.56,0.3-1.02,0.46
			c-1.02,0.35-2.09,0.59-3.15,0.73c-2.12,0.28-4.31,0.24-6.43,0.05c-0.91-0.08-1.07-0.11-2.01-0.29c-0.86-0.16-1.73-0.35-2.58-0.57
			c-0.96-0.24-1.93-0.51-2.85-0.87c-0.05-0.02-0.47-0.23-0.79-0.4c-0.36-0.18-0.16-0.26-0.07-0.02c-0.17-0.44,0.22,0.42,0.02,0
			c-0.13,1.01-0.26,2.02-0.39,3.03c1.34-1.23,3.84-0.92,5.54-0.66c2.26,0.35,4.55,0.77,6.79,1.23c1.11,0.23,2.05,0.47,2.87,0.94
			c0.57,0.33,0.09,0.12,0.35,0.21c0.03,0.03,0.06,0.06,0.09,0.08c0.98-2.34,0.99-3.2,0.02-2.56c-0.63,0.17-1.22,0.38-1.86,0.5
			c-2.6,0.5-5.37,0.36-7.99,0.14c-0.82-0.07-1.63-0.17-2.45-0.26c-0.15-0.02-0.48-0.07,0.2,0.03c-0.17-0.02-0.34-0.05-0.5-0.07
			c-0.34-0.05-0.68-0.1-1.02-0.15c-1.55-0.24-3.09-0.52-4.62-0.84c-1.84-0.38-3.66-0.83-5.47-1.36c-1.74-0.51-3.66-1.17-5-1.79
			c-0.87-0.4-1.73-0.84-2.55-1.34c-0.37-0.22-0.72-0.46-1.07-0.71c-0.6-0.43,0.35,0.31-0.2-0.16c-0.16-0.14-0.33-0.28-0.49-0.43
			c-0.3-0.28-0.58-0.58-0.85-0.9c0.34,0.41,0.05,0.07-0.02-0.05c-0.11-0.19-0.23-0.38-0.35-0.57c-0.06-0.11-0.11-0.23-0.17-0.34
			c0.28,0.61-0.01-0.15-0.06-0.28c-0.04-0.11-0.06-0.25-0.08-0.36c0.15,0.68,0.01-0.1,0-0.27c-0.41,0.72-0.83,1.44-1.24,2.16
			c-0.57,0.25,0.69-0.07,0.22-0.02c0.13-0.01,0.96,0,0.76-0.03c0.15,0.02,0.94,0.14,0.71,0.17c0.29-0.03,0.15,0.2-0.02-0.25
			c0.8-1.05,1.61-2.11,2.41-3.16c-0.97,0.09-1.98-0.02-2.95-0.12c-0.33-0.03-0.66-0.07-0.99-0.11c-0.76-0.09,0.51,0.08-0.28-0.04
			c-0.16-0.02-0.32-0.05-0.49-0.07c-0.84-0.13-1.67-0.29-2.5-0.48c-0.78-0.18-1.56-0.38-2.32-0.63c-0.38-0.12-0.76-0.26-1.12-0.41
			c-0.39-0.16,0.5,0.25-0.13-0.06c-0.13-0.07-0.26-0.13-0.39-0.19c-0.3-0.16-0.58-0.33-0.86-0.52c0.46,0.31-0.15-0.16-0.3-0.31
			c0.26,0.26,0.05,0.23,0.1,0.12c-0.04-0.06-0.08-0.13-0.11-0.2c-0.06-0.12-0.05-0.09,0.04,0.09c0.08,0.21,0.09,0.21,0.03,0.02
			c0.01,0.12,0.03,0.25,0.04,0.37c0.04-0.05,0-0.39,0.01-0.46c-0.61,0.8-1.22,1.61-1.84,2.41c2.58-1.03,4.84,0.38,6.88,1.9
			c0.62,0.46,1.62,1.3,2.35,2.06c0.09,0.1,0.55,0.62,0.49,0.53c-0.11-0.14,0.22,0.35,0.27,0.42c0.05,0.09,0.1,0.18,0.15,0.28
			c-0.12-0.3-0.14-0.32-0.06-0.06c0.02-0.35,0.05-0.62,0.12-0.97c-0.06,0.3,0.19-0.09-0.05,0.06c0.4-0.23-0.12-0.18,0.34-0.2
			c-0.17,0.01-0.37,0.11-0.55,0.14c0.64-0.11-0.1-0.05-0.26-0.05c-0.62,0,0.15,0.07-0.34-0.05c-0.23-0.06-0.46-0.11-0.69-0.18
			c-0.63-0.19-0.53-0.17-1.02-0.42c-1.03-0.54-1.49-0.83-2.19-1.75c0.29,0.39-0.1-0.2-0.12-0.24c-0.3-0.64,0.13,0.47-0.09-0.18
			c-0.08-0.23-0.13-0.58-0.05-0.14c0.01-0.29,0-0.27-0.05,0.06c0.03-0.14,0.06-0.27,0.11-0.4c-0.58,0.58-1.16,1.16-1.75,1.75
			c0.51-0.14-1.01-0.08-0.44-0.01c0.45,0.05-0.38-0.25,0.05,0.02c0.06,0.04,0.64,0.43,0.42,0.26c-0.21-0.16,0.38,0.35,0.44,0.41
			c0.9,0.87,1.46,1.61,2.11,2.54c1.19,1.71,2.3,3.53,3.19,5.42c1.31-1.01,2.62-2.02,3.93-3.03c-2.08-1.69-5-2.97-6.61-5.14
			c-0.52-0.7-0.58-1.85-0.9-2.88c-0.47-1.54-1.28-2.85-2.71-3.66c-1.27-0.72-3.42-0.15-3.67,1.49c-0.6,3.88-0.89,9.49,2.57,12.11
			c1.33,1.01,3.27-0.1,3.67-1.49c1.05-3.65-1.54-7.16-2.92-10.34c-0.97-2.23-4.94-1.15-4.66,1.26c0.14,1.26,0.28,2.52,0.37,3.78
			c0.1,1.35,1.08,2.5,2.5,2.5c1.28,0,2.6-1.15,2.5-2.5c-0.09-1.26-0.22-2.52-0.37-3.78c-1.55,0.42-3.11,0.84-4.66,1.26
			c0.54,1.24,1.22,2.42,1.76,3.66c0.23,0.53,0.43,1.07,0.58,1.63c0.16,0.6,0.17,0.89,0.08,1.2c1.22-0.5,2.45-1,3.67-1.49
			c0.38,0.29,0.36,0.44,0.13-0.02c-0.19-0.4,0.02,0.11-0.07-0.17c-0.05-0.16-0.1-0.33-0.14-0.5c-0.21-0.82-0.24-1.13-0.28-2.02
			c-0.04-0.76-0.04-1.52-0.01-2.28c0.01-0.37,0.04-0.74,0.07-1.1c0.01-0.14,0.03-0.28,0.04-0.42c0.04-0.38-0.09,0.59-0.01,0.06
			c-1.22,0.5-2.45,1-3.67,1.49c0.3,0.17,0.23,0.12,0.37,0.53c0.2,0.57,0.29,1.18,0.43,1.76c0.34,1.38,0.95,2.53,1.9,3.59
			c1.84,2.07,4.4,3.31,6.5,5.03c2.21,1.8,5.16-0.39,3.93-3.03c-1.44-3.07-3.38-6.18-5.73-8.62c-1.24-1.3-2.86-2.52-4.74-2.46
			c-3.04,0.09-3.38,3.52-2.43,5.73c1.45,3.4,5.74,5.91,9.41,5.8c2.03-0.06,4.12-1.14,4.75-3.2c0.63-2.06-0.64-3.95-1.98-5.39
			c-3.42-3.67-9.06-7.38-14.18-5.34c-1.13,0.45-1.72,1.2-1.84,2.41c-0.4,4.06,4.58,5.94,7.69,6.76c1.91,0.5,3.86,0.81,5.81,1.04
			c1.21,0.14,2.49,0.31,3.71,0.2c1.45-0.13,3.05-1.52,2.41-3.16c-1.4-3.63-5.77-4.25-9.02-2.85c-0.77,0.33-1.25,1.37-1.24,2.16
			c0.08,4.34,3.56,7.32,7.14,9.17c4.07,2.1,8.59,3.34,13.06,4.26c4.14,0.85,8.39,1.51,12.62,1.58c3.05,0.05,7.07,0.04,9.69-1.77
			c1.42-0.98,2.02-2.8,1.06-4.33c-0.86-1.39-2.6-2.18-4.08-2.69c-1.54-0.53-3.19-0.73-4.78-0.99c-1.44-0.23-2.86-0.57-4.3-0.79
			c-3.52-0.54-7.3-0.56-10.07,1.99c-0.87,0.8-0.86,2.05-0.39,3.03c1.02,2.15,4.17,2.93,6.25,3.48c2.13,0.56,4.31,0.97,6.5,1.16
			c2.76,0.24,5.55,0.13,8.27-0.35c1.36-0.24,2.67-0.64,3.93-1.21c1.22-0.55,2.86-1.44,3.23-2.81c0.86-3.14-2.55-5.44-4.92-6.56
			c-3.27-1.54-6.51-3.12-9.91-4.37c-3.54-1.3-7.28-1.88-11.03-2.14c-3.5-0.25-8.86-0.45-11.02,2.96c-3.87,6.1,8.43,7.4,11.86,7.7
			c6.62,0.57,13.23,1.08,19.88,1.2c1.59,0.03,3.49-0.23,4.68-1.42c1.11-1.11,0.83-2.93,0.11-4.16c-1.02-1.73-2.97-2.75-4.75-3.52
			c-4.5-1.93-9.47-3.01-14.29-3.77c-7.82-1.23-15.91-1.21-23.21,2.2c-0.78,0.36-1.23,1.34-1.24,2.16c-0.03,3.18,3.1,4.67,5.8,5.14
			c3.49,0.61,7.09,0.5,10.6,0.18c3.5-0.32,7.04-0.81,10.44-1.74c1.18-0.32,2.41-0.69,3.47-1.3c1.97-1.13,2.06-3.42,0.92-5.2
			c-1.98-3.1-6.59-4.03-9.93-4.69c-4.18-0.83-8.6-1.64-12.85-1.6c-2.88,0.03-5.66,0.64-8.49,1.07c-2.17,0.33-4.54,0.7-6.35,2.04
			c-1.95,1.44-2.71,3.81-1.67,6.04c0.78,1.67,2.37,2.88,3.91,3.81c3.54,2.14,7.88,3.68,12.03,3.89c6.95,0.35,14.09-1.01,20.7-3.06
			c0.96-0.3,1.95-1.31,1.84-2.41c-0.34-3.25-4.14-4.67-6.69-5.98c-1.79-0.91-3.51-1.92-5.36-2.71c-2.22-0.94-4.49-1.71-6.83-2.29
			c-5.13-1.26-10.8-1.97-16.04-1.14c-2.5,0.39-5.13,1.56-5.92,4.17c-1.16,3.88,2.51,6.37,5.36,8.04c1.89,1.11,3.67,2.23,5.72,3.04
			c2.17,0.85,4.44,1.37,6.71,1.87c5.01,1.1,9.98,2.35,15.05,3.15c5.01,0.79,9.97,0.91,15.03,1c3.58,0.07,8.52,0.23,11.14-2.71
			c0.71-0.8,1.01-2.07,0.39-3.03c-1.85-2.86-5.41-4.17-8.39-5.53c-3.68-1.68-7.47-3.12-11.35-4.29c-6.92-2.1-14.24-2.08-21.38-1.34
			c-3.69,0.38-7.45,1.14-9.85,4.24c-0.72,0.93-0.97,1.95-0.39,3.03c1.25,2.34,3.82,3.72,6.05,4.98c2.6,1.47,5.09,3.11,7.77,4.45
			c5.58,2.78,11.62,4.91,17.76,6.02c5.53,1,11.38,1.28,16.82-0.4c2.27-0.7,4.87-1.89,5.37-4.47c0.35-1.81-0.45-3.25-1.58-4.58
			c-1.02-1.2-2.07-2.38-3.25-3.43c-4.57-4.08-10.21-6.63-15.88-8.79c-5.54-2.1-11.34-3.84-17.29-4.13c-2.91-0.14-5.93,0.12-8.72,1
			c-2.53,0.8-5.71,2.15-6.98,4.66c-1.44,2.82,0.31,5.74,2.53,7.54c2.11,1.71,4.68,2.74,7.28,3.46c6.5,1.8,13.4,2.34,20.12,2.16
			c2.8-0.08,5.66-0.08,8.46-0.32c2.46-0.21,5.6-0.74,6.8-3.23c0.36-0.75,0.55-1.79,0-2.52c-4.06-5.44-11.46-7.26-17.82-8.4
			c-7.49-1.34-15.76-1.17-22.79,2c-0.82,0.37-1.18,1.34-1.24,2.16c-0.37,5.45,8.11,6.91,11.96,7.65c6.02,1.17,12.06,2.41,18.22,2.42
			c3.91,0.01,7.95-0.38,11.68-1.59c1.98-0.64,4.33-1.36,4.21-3.88c-0.09-1.74-1.36-3.08-2.65-4.1c-6.32-5.01-13.94-8.52-21.89-9.92
			c-4.48-0.79-9.05-1.04-13.6-0.84c-3.55,0.16-7.28,0.52-10.5,2.11c-0.79,0.39-1.69,0.92-2.22,1.62c-0.78,1.02-0.59,2.3-0.08,3.39
			c0.67,1.43,1.88,2.6,3.05,3.63c2.81,2.47,5.93,4.03,9.58,4.88c3.89,0.9,7.94,1.39,11.9,1.94c4.8,0.67,9.63,1.07,14.47,1.2
			c2.77,0.08,6.08,0.47,8.74-0.52c3.7-1.38,3.73-5.37,1.38-8.08c-2.16-2.5-5.54-3.68-8.28-5.38c-3.71-2.3-7.7-4.16-11.93-5.28
			c-9.17-2.44-18.83-0.61-28.1,0.32c-2.45,0.25-4.9,0.48-7.35,0.69c-1.35,0.11-2.5,1.07-2.5,2.5
			C379.56,179.49,380.71,180.84,382.06,180.73L382.06,180.73z"/>
	</g>
</g>
<g>
	<g>
		<path d="M307.84,180.96c-1.72,0.92-3.4,1.91-5.18,2.71c0.84,1.44,1.68,2.88,2.52,4.32c1.13-0.75,2.24-1.53,3.42-2.22
			c0.34-0.2,0.68-0.39,1.03-0.56c0.17-0.09,0.34-0.17,0.51-0.25c-0.31,0.15-0.11,0.04,0.09-0.03c0.16-0.05,0.31-0.1,0.47-0.16
			c0.08-0.03,0.61-0.15,0.19-0.07c-0.39,0.08,0.05-0.02,0.15,0c-0.26-0.06-0.51-0.12-0.12,0.01c-0.61-0.8-1.22-1.61-1.84-2.41
			c0.01,0.7-0.05-0.5,0,0.2c-0.08,0.24-0.09,0.29-0.03,0.13c0.07-0.16,0.05-0.11-0.07,0.13c-0.13,0.21-0.25,0.43-0.39,0.64
			c-0.05,0.07-0.1,0.14-0.15,0.21c0.1-0.13,0.09-0.12-0.02,0.01c-0.64,0.77-1.36,1.46-2.03,2.2c-0.68,0.75-1.26,1.59-1.91,2.37
			c-0.9,1.1-1.81,2.19-2.52,3.42c-0.85,1.48,0.2,4.02,2.16,3.76c1.99-0.26,3.8-1.09,5.51-2.14c1.69-1.03,3.28-2.25,4.45-3.86
			c1.01-1.39-0.11-3.21-1.49-3.67c-2.44-0.82-4.47,0.54-6.27,2.03c-0.04,0.04-0.54,0.43-0.32,0.26c0.23-0.17-0.38,0.27-0.43,0.31
			c-0.4,0.29-0.8,0.58-1.22,0.85c-0.9,0.59-1.66,1-2.6,1.29c0.94,0.38,1.88,0.77,2.82,1.15c-0.13-0.2-0.09-0.09,0.13,0.35
			c0.05,0.5,0.07,0.61,0.06,0.35c0-0.31-0.21,0.62,0.03,0c0.03-0.06,0.24-0.7,0.1-0.33c-0.14,0.37,0.15-0.32,0.18-0.38
			c0.47-0.94,1.03-1.83,1.61-2.71c1.1-1.65,2.43-3.05,3.46-4.74c0.72-1.18,1.23-2.58,1.53-3.93c0.34-1.52-0.07-2.74-0.92-3.99
			c-0.7-1.03-1.3-2.13-2.14-3.06c-1.18-1.31-2.66-1.76-4.38-1.52c-1.34,0.18-2.07,1.9-1.75,3.08c0.4,1.45,1.73,1.93,3.08,1.75
			c-0.18,0.07-0.36,0.08-0.55,0.04c-0.29-0.13-0.32-0.13-0.07,0.01c-0.06-0.04-0.12-0.09-0.18-0.13c0.11,0.1,0.21,0.2,0.31,0.31
			c0.18,0.22,0.19,0.23,0.03,0.03c0.07,0.09,0.13,0.19,0.2,0.28c0.14,0.22,0.29,0.44,0.42,0.66c0.28,0.45,0.58,0.88,0.87,1.32
			c0.13,0.19,0.24,0.39,0.35,0.58c-0.12-0.33-0.15-0.38-0.07-0.13c-0.02-0.12-0.04-0.25-0.06-0.37c-0.01,0.26-0.01,0.2,0.03-0.18
			c-0.03,0.13-0.07,0.27-0.11,0.4c-0.07,0.26-0.16,0.53-0.24,0.79c-0.23,0.72-0.26,0.83-0.62,1.44c-0.63,1.06-1.11,1.51-1.98,2.66
			c-0.99,1.3-1.93,2.65-2.73,4.08c-0.92,1.64-2.15,4.05-0.94,5.86c0.6,0.9,1.73,1.49,2.82,1.15c1.95-0.61,3.62-1.63,5.26-2.82
			c0.42-0.3,0.83-0.62,1.23-0.94c0.16-0.13,0.33-0.27,0.49-0.4c0.07-0.06,0.31-0.25,0.1-0.09c0.17-0.13,0.35-0.25,0.53-0.36
			c0.1-0.06,0.43-0.37,0.19-0.14c0.07-0.07,0.31-0.22,0.05-0.06c0.27,0,0.33,0,0.16-0.01c-0.17-0.02-0.11,0.01,0.18,0.08
			c-0.5-1.22-1-2.45-1.49-3.67c0.39-0.53-0.15,0.14-0.32,0.31c-0.23,0.23-0.48,0.44-0.73,0.65c-0.06,0.05-0.47,0.36-0.15,0.12
			c-0.13,0.1-0.27,0.19-0.4,0.29c-0.35,0.24-0.7,0.48-1.06,0.7c-0.64,0.39-1.3,0.73-1.97,1.06c-0.66,0.32,0.24-0.08-0.13,0.06
			c-0.16,0.06-0.33,0.12-0.5,0.18c-0.22,0.07-1.16,0.25-0.38,0.15c0.72,1.25,1.44,2.51,2.16,3.76c0.64-1.11,1.46-2.06,2.26-3.05
			c0.3-0.38,0.6-0.76,0.89-1.15c0.39-0.52-0.17,0.14,0.19-0.24c0.33-0.35,0.65-0.72,0.99-1.07c1.67-1.75,3.53-3.74,3.47-6.32
			c-0.02-1.17-0.77-2.04-1.84-2.41c-1.85-0.65-3.96,0.34-5.56,1.2c-1.41,0.76-2.71,1.68-4.04,2.56c-1.13,0.74-1.61,2.21-0.9,3.42
			c0.74,1.27,2.18,1.45,3.42,0.9c1.78-0.79,3.47-1.78,5.18-2.71c1.19-0.64,1.56-2.28,0.9-3.42
			C310.56,180.66,309.03,180.32,307.84,180.96L307.84,180.96z"/>
	</g>
</g>
<circle class="st4" cx="349.62" cy="266.65" r="10.38"/>
<circle class="st5" cx="233.33" cy="266.03" r="4.57"/>
<path class="st1" d="M446.33,180.4c0,0-76.34-107.49-182.22-40.83c0,0-40.56,34.39-65.77,80.34c0,0,17.34-138.51,125.41-136.84
	C323.75,83.08,407.14,68.62,446.33,180.4z"/>
<path class="st6" d="M287.3,299.34c0,0,61.33,46.38,111.85,0"/>
</svg>
