<?xml version="1.0" encoding="utf-8"?>
<!-- Generator: Adobe Illustrator 26.2.1, SVG Export Plug-In . SVG Version: 6.00 Build 0)  -->
<svg version="1.1" xmlns="http://www.w3.org/2000/svg" xmlns:xlink="http://www.w3.org/1999/xlink" x="0px" y="0px"
	 viewBox="0 0 792 612" style="enable-background:new 0 0 792 612;" xml:space="preserve">
<style type="text/css">
	.st0{opacity:0.34;fill:#2E3192;}
	.st1{opacity:0.59;fill:#2E3192;}
	.st2{opacity:0.34;fill:#FFFFFF;}
	.st3{fill:#D7DF23;}
	.st4{fill:#59C09B;}
	.st5{fill:#E390BD;}
</style>
<g id="Layer_1">
	<rect width="792" height="612"/>
</g>
<g id="Layer_2">
	<rect x="484.49" y="495.43" class="st0" width="3" height="12"/>
	<rect x="484.49" y="532.96" class="st1" width="3" height="25.53"/>
	<path class="st1" d="M487.49,598.23v-14.22h-3v15.19C485.25,598.61,486.25,598.23,487.49,598.23z"/>
	<path class="st1" d="M487.49,598.23v-14.37h-3v15.34C485.25,598.61,486.25,598.23,487.49,598.23z"/>
	<rect x="525.52" y="409.3" class="st0" width="3" height="12"/>
	<path class="st1" d="M528.52,574.47h-3v-25.53h3V574.47z M528.52,523.41h-3v-25.53h3V523.41z M528.52,472.36h-3v-25.53h3V472.36z"
		/>
	<rect x="570.74" y="285.39" class="st0" width="3" height="12"/>
	<path class="st1" d="M573.74,576.72h-3v-23.28h3V576.72z M573.74,530.17h-3v-23.28h3V530.17z M573.74,483.61h-3v-23.28h3V483.61z
		 M573.74,437.05h-3v-23.28h3V437.05z M573.74,390.5h-3v-23.28h3V390.5z M573.74,343.94h-3v-23.28h3V343.94z"/>
	<rect x="624.43" y="239.39" class="st0" width="3" height="12"/>
	<path class="st1" d="M627.43,576.76h-3v-23.24h3V576.76z M627.43,530.28h-3v-23.24h3V530.28z M627.43,483.8h-3v-23.24h3V483.8z
		 M627.43,437.32h-3v-23.24h3V437.32z M627.43,390.83h-3v-23.24h3V390.83z M627.43,344.35h-3v-23.24h3V344.35z M627.43,297.87h-3
		v-23.24h3V297.87z"/>
	<rect x="673.89" y="198.97" class="st2" width="3" height="12"/>
	<path class="st1" d="M676.89,577.12h-3v-22.88h3V577.12z M676.89,531.35h-3v-22.88h3V531.35z M676.89,485.58h-3V462.7h3V485.58z
		 M676.89,439.81h-3v-22.88h3V439.81z M676.89,394.04h-3v-22.88h3V394.04z M676.89,348.28h-3v-22.88h3V348.28z M676.89,302.51h-3
		v-22.88h3V302.51z M676.89,256.74h-3v-22.88h3V256.74z"/>
	<rect x="723.34" y="246.36" class="st0" width="3" height="12"/>
	<path class="st1" d="M726.34,577.22h-3v-22.78h3V577.22z M726.34,531.67h-3V508.9h3V531.67z M726.34,486.12h-3v-22.78h3V486.12z
		 M726.34,440.57h-3v-22.78h3V440.57z M726.34,395.02h-3v-22.78h3V395.02z M726.34,349.46h-3v-22.78h3V349.46z M726.34,303.91h-3
		v-22.78h3V303.91z"/>
	<rect x="767.11" y="180.85" class="st2" width="3" height="12"/>
	<path class="st1" d="M770.11,576.05h-3V552.1h3V576.05z M770.11,528.15h-3V504.2h3V528.15z M770.11,480.25h-3V456.3h3V480.25z
		 M770.11,432.35h-3V408.4h3V432.35z M770.11,384.45h-3V360.5h3V384.45z M770.11,336.55h-3V312.6h3V336.55z M770.11,288.65h-3V264.7
		h3V288.65z M770.11,240.75h-3V216.8h3V240.75z"/>
	<polygon class="st3" points="0,571.4 0,612 115.6,612 69.13,591.7 30.2,591.7 13.88,560.31 0,532.48 	"/>
	<polygon class="st4" points="47.78,612 130.67,514.89 182.16,555.28 192.2,541.27 242.43,592.75 308.99,612 	"/>
	<rect x="525.52" y="497.74" class="st1" width="3" height="25.53"/>
	<rect x="525.52" y="547.79" class="st1" width="3" height="25.53"/>
	<rect x="570.74" y="459.69" class="st1" width="3" height="23.28"/>
	<rect x="570.74" y="366.57" class="st1" width="3" height="23.28"/>
	<rect x="570.74" y="413.13" class="st1" width="3" height="23.28"/>
	<rect x="570.74" y="552.8" class="st1" width="3" height="23.28"/>
	<rect x="570.74" y="506.24" class="st1" width="3" height="23.28"/>
	<rect x="624.43" y="367.02" class="st1" width="3" height="23.24"/>
	<rect x="624.43" y="459.98" class="st1" width="3" height="23.24"/>
	<rect x="624.43" y="320.54" class="st1" width="3" height="23.24"/>
	<rect x="624.43" y="413.5" class="st1" width="3" height="23.24"/>
	<rect x="624.43" y="506.47" class="st1" width="3" height="23.24"/>
	<rect x="624.43" y="552.95" class="st1" width="3" height="23.24"/>
	<rect x="673.89" y="417.07" class="st1" width="3" height="22.88"/>
	<rect x="673.89" y="371.3" class="st1" width="3" height="22.88"/>
	<rect x="673.89" y="325.53" class="st1" width="3" height="22.88"/>
	<rect x="673.89" y="279.76" class="st1" width="3" height="22.88"/>
	<rect x="673.89" y="462.84" class="st1" width="3" height="22.88"/>
	<rect x="673.89" y="508.6" class="st1" width="3" height="22.88"/>
	<rect x="673.89" y="554.37" class="st1" width="3" height="22.88"/>
	<rect x="723.34" y="418.15" class="st1" width="3" height="22.78"/>
	<rect x="723.34" y="372.6" class="st1" width="3" height="22.78"/>
	<rect x="723.34" y="463.7" class="st1" width="3" height="22.78"/>
	<rect x="723.34" y="327.05" class="st1" width="3" height="22.78"/>
	<rect x="723.34" y="509.25" class="st1" width="3" height="22.78"/>
	<rect x="723.34" y="554.81" class="st1" width="3" height="22.78"/>
	<rect x="767.11" y="262.71" class="st1" width="3" height="23.95"/>
	<rect x="767.11" y="406.41" class="st1" width="3" height="23.95"/>
	<rect x="767.11" y="310.61" class="st1" width="3" height="23.95"/>
	<rect x="767.11" y="358.51" class="st1" width="3" height="23.95"/>
	<rect x="767.11" y="454.31" class="st1" width="3" height="23.95"/>
	<rect x="767.11" y="550.11" class="st1" width="3" height="23.95"/>
	<rect x="767.11" y="502.21" class="st1" width="3" height="23.95"/>
	<rect x="570.74" y="551.22" class="st1" width="3" height="23.28"/>
	<rect x="570.74" y="504.67" class="st1" width="3" height="23.28"/>
	<rect x="570.74" y="458.11" class="st1" width="3" height="23.28"/>
	<rect x="624.43" y="505.04" class="st1" width="3" height="23.24"/>
	<rect x="624.43" y="412.08" class="st1" width="3" height="23.24"/>
	<rect x="624.43" y="458.56" class="st1" width="3" height="23.24"/>
	<rect x="624.43" y="551.52" class="st1" width="3" height="23.24"/>
	<rect x="673.89" y="508.6" class="st1" width="3" height="22.88"/>
	<rect x="673.89" y="462.84" class="st1" width="3" height="22.88"/>
	<rect x="673.89" y="417.07" class="st1" width="3" height="22.88"/>
	<rect x="673.89" y="371.3" class="st1" width="3" height="22.88"/>
	<rect x="673.89" y="554.37" class="st1" width="3" height="22.88"/>
	<rect x="723.34" y="555.24" class="st1" width="3" height="22.78"/>
	<rect x="723.34" y="509.69" class="st1" width="3" height="22.78"/>
	<rect x="723.34" y="418.58" class="st1" width="3" height="22.78"/>
	<rect x="723.34" y="464.13" class="st1" width="3" height="22.78"/>
	<rect x="767.11" y="454.05" class="st1" width="3" height="23.95"/>
	<rect x="767.11" y="501.95" class="st1" width="3" height="23.95"/>
	<rect x="767.11" y="406.15" class="st1" width="3" height="23.95"/>
	<rect x="767.11" y="358.25" class="st1" width="3" height="23.95"/>
	<rect x="767.11" y="549.85" class="st1" width="3" height="23.95"/>
	<polygon class="st5" points="792,612 792,498.57 762.34,550.06 747.27,526.2 730.94,563.87 712.1,612 	"/>
	<polygon class="st3" points="582.76,612 732.2,612 712.1,550.06 679.45,592.75 573.97,508.61 521.22,560.31 507.41,555.28 
		477.27,586.47 452.15,612 	"/>
</g>
</svg>
