<?xml version="1.0" encoding="utf-8"?>
<!-- Generator: Adobe Illustrator 26.2.1, SVG Export Plug-In . SVG Version: 6.00 Build 0)  -->
<svg version="1.1" xmlns="http://www.w3.org/2000/svg" xmlns:xlink="http://www.w3.org/1999/xlink" x="0px" y="0px"
	 viewBox="0 0 792 612" style="enable-background:new 0 0 792 612;" xml:space="preserve">
<style type="text/css">
	.st0{opacity:0.54;}
	.st1{fill:#FFFFFF;}
	.st2{opacity:0.1;fill:none;stroke:#FFFFFF;stroke-width:2;stroke-miterlimit:10;}
	.st3{opacity:0.7;fill:#2E3192;}
	.st4{fill:#2E3192;}
	.st5{fill:#DA1C5C;}
</style>
<g id="Layer_1">
	<rect width="792" height="612"/>
</g>
<g id="Layer_2">
	<g class="st0">
		<g>
			<path class="st1" d="M482.21,526.15c2.62,0,5.12-2.3,5-5c-0.12-2.71-2.2-5-5-5c-2.62,0-5.12,2.3-5,5
				C477.33,523.86,479.41,526.15,482.21,526.15L482.21,526.15z"/>
		</g>
	</g>
	<g class="st0">
		<g>
			<path class="st1" d="M454.55,551.42c2.62,0,5.12-2.3,5-5c-0.12-2.71-2.2-5-5-5c-2.62,0-5.12,2.3-5,5
				C449.67,549.13,451.75,551.42,454.55,551.42L454.55,551.42z"/>
		</g>
	</g>
	<g class="st0">
		<g>
			<path class="st1" d="M423.2,578.03c2.62,0,5.12-2.3,5-5c-0.12-2.71-2.2-5-5-5c-2.62,0-5.12,2.3-5,5
				C418.32,575.74,420.4,578.03,423.2,578.03L423.2,578.03z"/>
		</g>
	</g>
	<g class="st0">
		<g>
			<path class="st1" d="M452.71,603.31c2.62,0,5.12-2.3,5-5c-0.12-2.71-2.2-5-5-5c-2.62,0-5.12,2.3-5,5
				C447.83,601.02,449.9,603.31,452.71,603.31L452.71,603.31z"/>
		</g>
	</g>
	<g class="st0">
		<g>
			<path class="st1" d="M522.78,601.98c2.62,0,5.12-2.3,5-5c-0.12-2.71-2.2-5-5-5c-2.62,0-5.12,2.3-5,5
				C517.91,599.69,519.98,601.98,522.78,601.98L522.78,601.98z"/>
		</g>
	</g>
	<g class="st0">
		<g>
			<path class="st1" d="M591.02,596.66c2.62,0,5.12-2.3,5-5c-0.12-2.71-2.2-5-5-5c-2.62,0-5.12,2.3-5,5
				C586.14,594.36,588.22,596.66,591.02,596.66L591.02,596.66z"/>
		</g>
	</g>
	<g class="st0">
		<g>
			<path class="st1" d="M594.71,566.06c2.62,0,5.12-2.3,5-5c-0.12-2.71-2.2-5-5-5c-2.62,0-5.12,2.3-5,5
				C589.83,563.77,591.9,566.06,594.71,566.06L594.71,566.06z"/>
		</g>
	</g>
	<g class="st0">
		<g>
			<path class="st1" d="M594.71,538.12c2.62,0,5.12-2.3,5-5c-0.12-2.71-2.2-5-5-5c-2.62,0-5.12,2.3-5,5
				C589.83,535.83,591.9,538.12,594.71,538.12L594.71,538.12z"/>
		</g>
	</g>
	<g class="st0">
		<g>
			<path class="st1" d="M633.43,470.27c2.62,0,5.12-2.3,5-5c-0.12-2.71-2.2-5-5-5c-2.62,0-5.12,2.3-5,5
				C628.56,467.98,630.63,470.27,633.43,470.27L633.43,470.27z"/>
		</g>
	</g>
	<g class="st0">
		<g>
			<path class="st1" d="M657.41,451.65c2.62,0,5.12-2.3,5-5c-0.12-2.71-2.2-5-5-5c-2.62,0-5.12,2.3-5,5
				C652.53,449.36,654.6,451.65,657.41,451.65L657.41,451.65z"/>
		</g>
	</g>
	<g class="st0">
		<g>
			<path class="st1" d="M694.29,423.71c2.62,0,5.12-2.3,5-5c-0.12-2.71-2.2-5-5-5c-2.62,0-5.12,2.3-5,5
				C689.41,421.42,691.49,423.71,694.29,423.71L694.29,423.71z"/>
		</g>
	</g>
	<g class="st0">
		<g>
			<path class="st1" d="M771.75,383.8c2.62,0,5.12-2.3,5-5c-0.12-2.71-2.2-5-5-5c-2.62,0-5.12,2.3-5,5
				C766.87,381.51,768.94,383.8,771.75,383.8L771.75,383.8z"/>
		</g>
	</g>
	<g class="st0">
		<g>
			<path class="st1" d="M786.5,413.07c2.62,0,5.12-2.3,5-5c-0.12-2.71-2.2-5-5-5c-2.62,0-5.12,2.3-5,5
				C781.62,410.77,783.7,413.07,786.5,413.07L786.5,413.07z"/>
		</g>
	</g>
	<g class="st0">
		<g>
			<path class="st1" d="M782.81,458.3c2.62,0,5.12-2.3,5-5c-0.12-2.71-2.2-5-5-5c-2.62,0-5.12,2.3-5,5
				C777.93,456.01,780.01,458.3,782.81,458.3L782.81,458.3z"/>
		</g>
	</g>
	<polyline class="st2" points="482.21,521.15 454.55,546.42 423.2,573.03 452.71,598.31 522.78,596.98 591.02,591.66 594.71,561.06 
		594.71,533.12 633.43,465.27 657.41,446.65 694.29,418.71 771.75,378.8 749.62,350.86 	"/>
	<polyline class="st2" points="782.81,453.3 786.5,408.07 771.75,378.8 	"/>
	<g class="st0">
		<g>
			<path class="st1" d="M749.62,355.86c2.62,0,5.12-2.3,5-5c-0.12-2.71-2.2-5-5-5c-2.62,0-5.12,2.3-5,5
				C744.74,353.57,746.81,355.86,749.62,355.86L749.62,355.86z"/>
		</g>
	</g>
	<path class="st3" d="M656.03,593.78c25.29-39.22,88.5-64.42,94.82-66.53c6.32-2.1,48.46-4.2,40.04,66.53H656.03z"/>
	<path class="st3" d="M33.9,605.97c25.29-39.22,88.5-64.42,94.82-66.53c6.32-2.1,48.46-4.2,40.04,66.53H33.9z"/>
	<path class="st3" d="M403.58,607c19.21-16.11,32.8-18.76,50.27-25.14c17.47-6.38,44.65,12.53,55.33,17.43
		C519.86,604.2,403.58,607,403.58,607z"/>
	<path class="st4" d="M0,551.44c23.08,2.97,47.02,38.23,60.56,43.33c13.53,5.1,21.86,17.51,53.09,17.51s120.76-28.04,140.54-30.42
		c19.78-2.38,57.26-0.26,81.2,7.39c23.94,7.65,58.3,23.04,78.08,23.04c19.78,0,108.27-1.37,147.83-19.64
		c39.56-18.27,62.46-32.29,90.57-25.91S792,612.29,792,612.29H0V551.44z"/>
	<path class="st5" d="M0,591.8c43.9-15.29,78.26-24.22,93.87-23.79c15.62,0.42,47.89,1.7,77.04,9.77
		c29.15,8.07,60.38,22.09,87.45,25.06c27.07,2.97,33.31,9.44,67.67,9.44s145.75-20.91,173.86-20.06s72.87,20.06,80.16,20.06
		s19.78,1.18,47.89-2.22S754.11,528.92,792,532.32v79.96H0V591.8z"/>
</g>
</svg>
